<svg width="64" height="64" viewBox="0 0 64 64" fill="none" xmlns="http://www.w3.org/2000/svg">
<rect width="64" height="64" rx="32" fill="#988EA4"/>
<path d="M32.0466 11C20.1892 11 11 19.6663 11 31.3719C11 37.4944 13.5158 42.7853 17.6108 46.4402C18.3178 47.0761 18.1722 47.4445 18.2924 51.3712C18.3019 51.6462 18.3785 51.9148 18.5156 52.1534C18.6527 52.392 18.8461 52.5935 19.0789 52.7402C19.3117 52.887 19.5769 52.9745 19.8513 52.9952C20.1257 53.0159 20.401 52.9692 20.6532 52.859C25.1335 50.8859 25.1911 50.7301 25.9506 50.9368C38.9308 54.5095 53 46.2022 53 31.3719C53 19.6663 43.9048 11 32.0466 11ZM44.6838 26.6771L38.5024 36.4638C38.269 36.8318 37.962 37.1476 37.6009 37.3915C37.2397 37.6353 36.832 37.802 36.4035 37.8809C35.9749 37.9598 35.5346 37.9494 35.1103 37.8503C34.6859 37.7511 34.2866 37.5654 33.9374 37.3047L29.0194 33.6236C28.7995 33.4587 28.5321 33.3695 28.2573 33.3695C27.9824 33.3695 27.715 33.4587 27.4952 33.6236L20.859 38.6571C19.9733 39.3286 18.8132 38.2675 19.4102 37.3301L25.5916 27.5434C25.825 27.1753 26.1318 26.8594 26.493 26.6155C26.8542 26.3716 27.2618 26.2049 27.6905 26.1259C28.1191 26.047 28.5594 26.0574 28.9837 26.1567C29.4081 26.2559 29.8074 26.4417 30.1566 26.7025L35.0729 30.3828C35.2928 30.5477 35.5602 30.6368 35.835 30.6368C36.1099 30.6368 36.3773 30.5477 36.5971 30.3828L43.2367 25.3544C44.1207 24.6786 45.2808 25.7389 44.6838 26.6771Z" fill="white"/>
</svg>
